<svg width="1329" height="71" viewBox="0 0 1329 71" fill="none" xmlns="http://www.w3.org/2000/svg">
<g opacity="0.7">
<g clip-path="url(#clip0_1_2249)">
<path opacity="0.7" d="M34.4688 49.01V37.8069H37.6562C38.625 37.8069 39.3932 38.0439 39.9609 38.5178C40.5286 38.9918 40.8125 39.609 40.8125 40.3694C40.8125 41.0048 40.6406 41.5569 40.2969 42.0256C39.9531 42.4944 39.4792 42.8277 38.875 43.0256V43.0569C39.6302 43.1454 40.2344 43.4319 40.6875 43.9163C41.1406 44.3954 41.3672 45.0204 41.3672 45.7913C41.3672 46.7496 41.0234 47.5256 40.3359 48.1194C39.6484 48.7131 38.7812 49.01 37.7344 49.01H34.4688ZM35.7812 38.9944V42.6116H37.125C37.8438 42.6116 38.4089 42.4397 38.8203 42.0959C39.2318 41.747 39.4375 41.2574 39.4375 40.6272C39.4375 39.5387 38.7214 38.9944 37.2891 38.9944H35.7812ZM35.7812 43.7913V47.8225H37.5625C38.3333 47.8225 38.9297 47.6402 39.3516 47.2756C39.7786 46.9111 39.9922 46.4111 39.9922 45.7756C39.9922 44.4527 39.0911 43.7913 37.2891 43.7913H35.7812ZM50.1094 49.01H48.3125L44.7812 45.1663H44.75V49.01H43.4688V41.01H44.75V44.6741H44.7812L48.1406 41.01H49.8203L46.1094 44.8694L50.1094 49.01ZM57.7891 41.01L54.1094 50.2913C53.4531 51.9475 52.5312 52.7756 51.3438 52.7756C51.0104 52.7756 50.7318 52.7418 50.5078 52.6741V51.5256C50.7839 51.6194 51.0365 51.6663 51.2656 51.6663C51.9115 51.6663 52.3958 51.2808 52.7188 50.51L53.3594 48.9944L50.2344 41.01H51.6562L53.8203 47.1663C53.8464 47.2444 53.901 47.4475 53.9844 47.7756H54.0312C54.0573 47.6506 54.1094 47.4527 54.1875 47.1819L56.4609 41.01H57.7891ZM64.625 48.6428C64.0104 49.0126 63.2812 49.1975 62.4375 49.1975C61.2969 49.1975 60.375 48.8277 59.6719 48.0881C58.974 47.3433 58.625 46.3798 58.625 45.1975C58.625 43.8798 59.0026 42.8225 59.7578 42.0256C60.513 41.2236 61.5208 40.8225 62.7812 40.8225C63.4844 40.8225 64.1042 40.9527 64.6406 41.2131V42.5256C64.0469 42.109 63.4115 41.9006 62.7344 41.9006C61.9167 41.9006 61.2448 42.1949 60.7188 42.7834C60.1979 43.3668 59.9375 44.135 59.9375 45.0881C59.9375 46.0256 60.1823 46.7652 60.6719 47.3069C61.1667 47.8486 61.8281 48.1194 62.6562 48.1194C63.3542 48.1194 64.0104 47.8876 64.625 47.4241V48.6428ZM73.2031 49.01H71.9219V45.3772H67.8438V49.01H66.5625V41.01H67.8438V44.2913H71.9219V41.01H73.2031V49.01ZM79.1406 49.1975C77.9583 49.1975 77.013 48.8251 76.3047 48.0803C75.6016 47.3303 75.25 46.3381 75.25 45.1038C75.25 43.76 75.6172 42.7105 76.3516 41.9553C77.0859 41.2001 78.0781 40.8225 79.3281 40.8225C80.5208 40.8225 81.4505 41.1897 82.1172 41.9241C82.7891 42.6584 83.125 43.6767 83.125 44.9788C83.125 46.2548 82.763 47.2782 82.0391 48.0491C81.3203 48.8147 80.3542 49.1975 79.1406 49.1975ZM79.2344 41.9006C78.4115 41.9006 77.7604 42.1819 77.2812 42.7444C76.8021 43.3017 76.5625 44.0725 76.5625 45.0569C76.5625 46.0048 76.8047 46.7522 77.2891 47.2991C77.7734 47.8459 78.4219 48.1194 79.2344 48.1194C80.0625 48.1194 80.6979 47.8512 81.1406 47.3147C81.5885 46.7782 81.8125 46.0152 81.8125 45.0256C81.8125 44.0256 81.5885 43.2548 81.1406 42.7131C80.6979 42.1715 80.0625 41.9006 79.2344 41.9006ZM90.1953 42.1038H87.7969V49.01H86.5156V42.1038H84.1094V41.01H90.1953V42.1038ZM98.1641 45.3303H92.5156C92.5365 46.2209 92.776 46.9084 93.2344 47.3928C93.6927 47.8772 94.3229 48.1194 95.125 48.1194C96.026 48.1194 96.8542 47.8225 97.6094 47.2288V48.4319C96.9062 48.9423 95.9766 49.1975 94.8203 49.1975C93.6901 49.1975 92.8021 48.8355 92.1562 48.1116C91.5104 47.3824 91.1875 46.359 91.1875 45.0413C91.1875 43.7965 91.5391 42.7834 92.2422 42.0022C92.9505 41.2157 93.8281 40.8225 94.875 40.8225C95.9219 40.8225 96.7318 41.1611 97.3047 41.8381C97.8776 42.5152 98.1641 43.4553 98.1641 44.6584V45.3303ZM96.8516 44.2444C96.8464 43.5048 96.6667 42.9293 96.3125 42.5178C95.9635 42.1064 95.4766 41.9006 94.8516 41.9006C94.2474 41.9006 93.7344 42.1168 93.3125 42.5491C92.8906 42.9814 92.6302 43.5465 92.5312 44.2444H96.8516ZM106.539 45.3303H100.891C100.911 46.2209 101.151 46.9084 101.609 47.3928C102.068 47.8772 102.698 48.1194 103.5 48.1194C104.401 48.1194 105.229 47.8225 105.984 47.2288V48.4319C105.281 48.9423 104.352 49.1975 103.195 49.1975C102.065 49.1975 101.177 48.8355 100.531 48.1116C99.8854 47.3824 99.5625 46.359 99.5625 45.0413C99.5625 43.7965 99.9141 42.7834 100.617 42.0022C101.326 41.2157 102.203 40.8225 103.25 40.8225C104.297 40.8225 105.107 41.1611 105.68 41.8381C106.253 42.5152 106.539 43.4553 106.539 44.6584V45.3303ZM105.227 44.2444C105.221 43.5048 105.042 42.9293 104.688 42.5178C104.339 42.1064 103.852 41.9006 103.227 41.9006C102.622 41.9006 102.109 42.1168 101.688 42.5491C101.266 42.9814 101.005 43.5465 100.906 44.2444H105.227ZM108.484 49.01V41.01H111.969C112.755 41.01 113.375 41.1845 113.828 41.5334C114.286 41.8824 114.516 42.359 114.516 42.9631C114.516 43.9996 114.005 44.6298 112.984 44.8538C114.208 45.01 114.82 45.6272 114.82 46.7053C114.82 47.3564 114.568 47.9032 114.062 48.3459C113.562 48.7887 112.94 49.01 112.195 49.01H108.484ZM109.766 42.1038V44.3538H111.688C112.719 44.3538 113.234 43.9527 113.234 43.1506C113.234 42.4527 112.771 42.1038 111.844 42.1038H109.766ZM109.766 45.4475V47.9163H111.984C113.021 47.9163 113.539 47.497 113.539 46.6584C113.539 45.8512 112.958 45.4475 111.797 45.4475H109.766ZM123.609 49.01H121.812L118.281 45.1663H118.25V49.01H116.969V41.01H118.25V44.6741H118.281L121.641 41.01H123.32L119.609 44.8694L123.609 49.01ZM130.648 49.01H129.367V47.76H129.336C128.779 48.7183 127.958 49.1975 126.875 49.1975C126.078 49.1975 125.453 48.9866 125 48.5647C124.552 48.1428 124.328 47.5829 124.328 46.885C124.328 45.3902 125.208 44.5204 126.969 44.2756L129.367 43.9397C129.367 42.5803 128.818 41.9006 127.719 41.9006C126.755 41.9006 125.885 42.2288 125.109 42.885V41.5725C125.896 41.0725 126.802 40.8225 127.828 40.8225C129.708 40.8225 130.648 41.8173 130.648 43.8069V49.01ZM129.367 44.9631L127.438 45.2288C126.844 45.3121 126.396 45.4605 126.094 45.6741C125.792 45.8824 125.641 46.2548 125.641 46.7913C125.641 47.1819 125.779 47.5022 126.055 47.7522C126.336 47.997 126.708 48.1194 127.172 48.1194C127.807 48.1194 128.331 47.898 128.742 47.4553C129.159 47.0074 129.367 46.4423 129.367 45.76V44.9631Z" fill="white"/>
</g>
</g>
<path d="M164.125 49.0579C162.505 49.0579 161.122 48.4875 159.977 47.3469C158.836 46.2011 158.266 44.8183 158.266 43.1985C158.266 41.5787 158.836 40.1985 159.977 39.0579C161.122 37.912 162.505 37.3391 164.125 37.3391C165.74 37.3391 167.117 37.912 168.258 39.0579C169.404 40.1985 169.977 41.5787 169.977 43.1985C169.977 44.8183 169.404 46.2011 168.258 47.3469C167.117 48.4875 165.74 49.0579 164.125 49.0579ZM164.125 38.0266C162.698 38.0266 161.479 38.5318 160.469 39.5422C159.458 40.5527 158.953 41.7714 158.953 43.1985C158.953 44.6256 159.458 45.8443 160.469 46.8547C161.479 47.8599 162.698 48.3625 164.125 48.3625C165.552 48.3625 166.768 47.8599 167.773 46.8547C168.784 45.8443 169.289 44.6256 169.289 43.1985C169.289 41.7714 168.784 40.5527 167.773 39.5422C166.768 38.5318 165.552 38.0266 164.125 38.0266ZM166.242 46.2297C165.695 46.5891 165.049 46.7688 164.305 46.7688C163.305 46.7688 162.466 46.4433 161.789 45.7922C161.112 45.1412 160.773 44.3261 160.773 43.3469C160.773 42.2115 161.12 41.3053 161.812 40.6282C162.505 39.9511 163.406 39.6125 164.516 39.6125C165.146 39.6125 165.711 39.7506 166.211 40.0266V41.1985C165.763 40.8235 165.167 40.636 164.422 40.636C163.688 40.636 163.081 40.8704 162.602 41.3391C162.128 41.8079 161.891 42.4381 161.891 43.2297C161.891 44.0006 162.133 44.6178 162.617 45.0813C163.107 45.5448 163.727 45.7766 164.477 45.7766C165.164 45.7766 165.753 45.5735 166.242 45.1672V46.2297ZM181.672 40.5344C181.672 40.1907 181.617 39.8912 181.508 39.636C181.404 39.3808 181.258 39.1698 181.07 39.0032C180.888 38.8313 180.672 38.7037 180.422 38.6204C180.172 38.537 179.901 38.4954 179.609 38.4954C179.359 38.4954 179.115 38.5292 178.875 38.5969C178.635 38.6646 178.401 38.7584 178.172 38.8782C177.948 38.998 177.729 39.1412 177.516 39.3079C177.307 39.4745 177.112 39.6594 176.93 39.8625V38.4875C177.289 38.1386 177.69 37.873 178.133 37.6907C178.581 37.5032 179.125 37.4094 179.766 37.4094C180.224 37.4094 180.648 37.4771 181.039 37.6125C181.43 37.7428 181.768 37.9355 182.055 38.1907C182.341 38.4459 182.565 38.761 182.727 39.136C182.893 39.511 182.977 39.9407 182.977 40.425C182.977 40.8678 182.924 41.2688 182.82 41.6282C182.721 41.9875 182.568 42.3261 182.359 42.6438C182.156 42.9615 181.898 43.2662 181.586 43.5579C181.273 43.8495 180.906 44.1464 180.484 44.4485C179.958 44.8235 179.523 45.1438 179.18 45.4094C178.841 45.675 178.57 45.925 178.367 46.1594C178.169 46.3886 178.029 46.6204 177.945 46.8547C177.867 47.0839 177.828 47.3495 177.828 47.6516H183.406V48.8H176.492V48.2454C176.492 47.7662 176.544 47.3443 176.648 46.9797C176.753 46.6152 176.924 46.2688 177.164 45.9407C177.404 45.6125 177.716 45.2844 178.102 44.9563C178.492 44.6282 178.969 44.2584 179.531 43.8469C179.938 43.5553 180.276 43.2766 180.547 43.011C180.823 42.7454 181.044 42.4797 181.211 42.2141C181.378 41.9485 181.495 41.6803 181.562 41.4094C181.635 41.1334 181.672 40.8417 181.672 40.5344ZM192.234 43.1516C192.234 44.0891 192.148 44.9198 191.977 45.6438C191.81 46.3678 191.565 46.9797 191.242 47.4797C190.924 47.9745 190.531 48.3521 190.062 48.6125C189.599 48.8678 189.07 48.9954 188.477 48.9954C187.914 48.9954 187.411 48.873 186.969 48.6282C186.531 48.3782 186.161 48.0162 185.859 47.5422C185.557 47.0683 185.328 46.4875 185.172 45.8C185.016 45.1073 184.938 44.3157 184.938 43.425C184.938 42.4459 185.018 41.5813 185.18 40.8313C185.346 40.0813 185.589 39.4537 185.906 38.9485C186.224 38.4381 186.617 38.0553 187.086 37.8C187.56 37.5396 188.102 37.4094 188.711 37.4094C191.06 37.4094 192.234 39.3235 192.234 43.1516ZM190.922 43.2766C190.922 40.0891 190.164 38.4954 188.648 38.4954C187.049 38.4954 186.25 40.1178 186.25 43.3625C186.25 46.3886 187.034 47.9016 188.602 47.9016C190.148 47.9016 190.922 46.3599 190.922 43.2766ZM198.922 40.5344C198.922 40.1907 198.867 39.8912 198.758 39.636C198.654 39.3808 198.508 39.1698 198.32 39.0032C198.138 38.8313 197.922 38.7037 197.672 38.6204C197.422 38.537 197.151 38.4954 196.859 38.4954C196.609 38.4954 196.365 38.5292 196.125 38.5969C195.885 38.6646 195.651 38.7584 195.422 38.8782C195.198 38.998 194.979 39.1412 194.766 39.3079C194.557 39.4745 194.362 39.6594 194.18 39.8625V38.4875C194.539 38.1386 194.94 37.873 195.383 37.6907C195.831 37.5032 196.375 37.4094 197.016 37.4094C197.474 37.4094 197.898 37.4771 198.289 37.6125C198.68 37.7428 199.018 37.9355 199.305 38.1907C199.591 38.4459 199.815 38.761 199.977 39.136C200.143 39.511 200.227 39.9407 200.227 40.425C200.227 40.8678 200.174 41.2688 200.07 41.6282C199.971 41.9875 199.818 42.3261 199.609 42.6438C199.406 42.9615 199.148 43.2662 198.836 43.5579C198.523 43.8495 198.156 44.1464 197.734 44.4485C197.208 44.8235 196.773 45.1438 196.43 45.4094C196.091 45.675 195.82 45.925 195.617 46.1594C195.419 46.3886 195.279 46.6204 195.195 46.8547C195.117 47.0839 195.078 47.3495 195.078 47.6516H200.656V48.8H193.742V48.2454C193.742 47.7662 193.794 47.3443 193.898 46.9797C194.003 46.6152 194.174 46.2688 194.414 45.9407C194.654 45.6125 194.966 45.2844 195.352 44.9563C195.742 44.6282 196.219 44.2584 196.781 43.8469C197.188 43.5553 197.526 43.2766 197.797 43.011C198.073 42.7454 198.294 42.4797 198.461 42.2141C198.628 41.9485 198.745 41.6803 198.812 41.4094C198.885 41.1334 198.922 40.8417 198.922 40.5344ZM208.961 45.6282C208.961 46.1334 208.865 46.5943 208.672 47.011C208.484 47.4224 208.216 47.7766 207.867 48.0735C207.523 48.3652 207.109 48.5917 206.625 48.7532C206.141 48.9146 205.607 48.9954 205.023 48.9954C203.956 48.9954 203.107 48.7922 202.477 48.386V47.011C203.232 47.6047 204.096 47.9016 205.07 47.9016C205.461 47.9016 205.812 47.8521 206.125 47.7532C206.443 47.6542 206.714 47.511 206.938 47.3235C207.167 47.136 207.341 46.9094 207.461 46.6438C207.586 46.3782 207.648 46.0787 207.648 45.7454C207.648 44.2818 206.607 43.55 204.523 43.55H203.594V42.4641H204.477C206.32 42.4641 207.242 41.7766 207.242 40.4016C207.242 39.1308 206.539 38.4954 205.133 38.4954C204.341 38.4954 203.599 38.761 202.906 39.2922V38.05C203.62 37.623 204.469 37.4094 205.453 37.4094C205.922 37.4094 206.346 37.4745 206.727 37.6047C207.107 37.7349 207.432 37.9172 207.703 38.1516C207.974 38.386 208.182 38.6672 208.328 38.9954C208.479 39.3235 208.555 39.6855 208.555 40.0813C208.555 41.5553 207.81 42.5032 206.32 42.925V42.9563C206.701 42.998 207.052 43.0917 207.375 43.2375C207.698 43.3782 207.977 43.5631 208.211 43.7922C208.445 44.0214 208.628 44.2922 208.758 44.6047C208.893 44.912 208.961 45.2532 208.961 45.6282Z" fill="white" fill-opacity="0.7"/>
<path opacity="0.7" d="M223.879 49.8H222.551V39.8157H216.699V49.8H215.379V38.5969H223.879V49.8ZM227.926 48.6438H227.894V53.4797H226.613V41.8H227.894V43.2063H227.926C228.556 42.1438 229.478 41.6125 230.691 41.6125C231.723 41.6125 232.527 41.9719 233.105 42.6907C233.683 43.4042 233.973 44.3625 233.973 45.5657C233.973 46.9042 233.647 47.9771 232.996 48.7844C232.345 49.5865 231.454 49.9875 230.324 49.9875C229.288 49.9875 228.488 49.5396 227.926 48.6438ZM227.894 45.4172V46.5344C227.894 47.1959 228.108 47.7584 228.535 48.2219C228.967 48.6803 229.514 48.9094 230.176 48.9094C230.952 48.9094 231.558 48.6125 231.996 48.0188C232.439 47.425 232.66 46.5995 232.66 45.5422C232.66 44.6516 232.454 43.9537 232.043 43.4485C231.631 42.9433 231.074 42.6907 230.371 42.6907C229.626 42.6907 229.027 42.9511 228.574 43.4719C228.121 43.9875 227.894 44.636 227.894 45.4172ZM241.746 49.8H240.465V48.55H240.433C239.876 49.5084 239.056 49.9875 237.973 49.9875C237.176 49.9875 236.551 49.7766 236.098 49.3547C235.65 48.9329 235.426 48.373 235.426 47.675C235.426 46.1803 236.306 45.3105 238.066 45.0657L240.465 44.7297C240.465 43.3704 239.915 42.6907 238.816 42.6907C237.853 42.6907 236.983 43.0188 236.207 43.675V42.3625C236.993 41.8625 237.9 41.6125 238.926 41.6125C240.806 41.6125 241.746 42.6073 241.746 44.5969V49.8ZM240.465 45.7532L238.535 46.0188C237.941 46.1021 237.493 46.2506 237.191 46.4641C236.889 46.6724 236.738 47.0448 236.738 47.5813C236.738 47.9719 236.876 48.2922 237.152 48.5422C237.433 48.787 237.806 48.9094 238.269 48.9094C238.905 48.9094 239.428 48.6881 239.84 48.2454C240.256 47.7974 240.465 47.2323 240.465 46.55V45.7532ZM244.16 49.8V41.8H247.644C248.431 41.8 249.051 41.9745 249.504 42.3235C249.962 42.6724 250.191 43.149 250.191 43.7532C250.191 44.7896 249.681 45.4198 248.66 45.6438C249.884 45.8 250.496 46.4172 250.496 47.4954C250.496 48.1464 250.243 48.6933 249.738 49.136C249.238 49.5787 248.616 49.8 247.871 49.8H244.16ZM245.441 42.8938V45.1438H247.363C248.394 45.1438 248.91 44.7428 248.91 43.9407C248.91 43.2428 248.446 42.8938 247.519 42.8938H245.441ZM245.441 46.2375V48.7063H247.66C248.696 48.7063 249.215 48.287 249.215 47.4485C249.215 46.6412 248.634 46.2375 247.473 46.2375H245.441ZM255.988 49.9875C254.806 49.9875 253.861 49.6152 253.152 48.8704C252.449 48.1204 252.098 47.1282 252.098 45.8938C252.098 44.55 252.465 43.5006 253.199 42.7454C253.933 41.9902 254.926 41.6125 256.176 41.6125C257.368 41.6125 258.298 41.9797 258.965 42.7141C259.637 43.4485 259.973 44.4667 259.973 45.7688C259.973 47.0448 259.611 48.0683 258.887 48.8391C258.168 49.6047 257.202 49.9875 255.988 49.9875ZM256.082 42.6907C255.259 42.6907 254.608 42.9719 254.129 43.5344C253.65 44.0917 253.41 44.8625 253.41 45.8469C253.41 46.7948 253.652 47.5422 254.137 48.0891C254.621 48.636 255.269 48.9094 256.082 48.9094C256.91 48.9094 257.545 48.6412 257.988 48.1047C258.436 47.5683 258.66 46.8053 258.66 45.8157C258.66 44.8157 258.436 44.0448 257.988 43.5032C257.545 42.9615 256.91 42.6907 256.082 42.6907ZM262.019 49.8V41.8H265.504C266.29 41.8 266.91 41.9745 267.363 42.3235C267.821 42.6724 268.051 43.149 268.051 43.7532C268.051 44.7896 267.54 45.4198 266.519 45.6438C267.743 45.8 268.355 46.4172 268.355 47.4954C268.355 48.1464 268.103 48.6933 267.598 49.136C267.098 49.5787 266.475 49.8 265.73 49.8H262.019ZM263.301 42.8938V45.1438H265.223C266.254 45.1438 266.769 44.7428 266.769 43.9407C266.769 43.2428 266.306 42.8938 265.379 42.8938H263.301ZM263.301 46.2375V48.7063H265.519C266.556 48.7063 267.074 48.287 267.074 47.4485C267.074 46.6412 266.493 46.2375 265.332 46.2375H263.301ZM276.23 49.8H274.949V48.55H274.918C274.361 49.5084 273.54 49.9875 272.457 49.9875C271.66 49.9875 271.035 49.7766 270.582 49.3547C270.134 48.9329 269.91 48.373 269.91 47.675C269.91 46.1803 270.79 45.3105 272.551 45.0657L274.949 44.7297C274.949 43.3704 274.4 42.6907 273.301 42.6907C272.337 42.6907 271.467 43.0188 270.691 43.675V42.3625C271.478 41.8625 272.384 41.6125 273.41 41.6125C275.29 41.6125 276.23 42.6073 276.23 44.5969V49.8ZM274.949 45.7532L273.019 46.0188C272.426 46.1021 271.978 46.2506 271.676 46.4641C271.374 46.6724 271.223 47.0448 271.223 47.5813C271.223 47.9719 271.361 48.2922 271.637 48.5422C271.918 48.787 272.29 48.9094 272.754 48.9094C273.389 48.9094 273.913 48.6881 274.324 48.2454C274.741 47.7974 274.949 47.2323 274.949 46.55V45.7532ZM284.113 49.8H282.832V46.4875H281.762C281.246 46.4875 280.777 46.9042 280.355 47.7375L279.316 49.8H277.832L279.176 47.3313C279.488 46.7584 279.866 46.3808 280.308 46.1985C279.683 46.1152 279.207 45.886 278.879 45.511C278.551 45.136 278.387 44.6672 278.387 44.1047C278.387 43.3964 278.642 42.8365 279.152 42.425C279.668 42.0084 280.389 41.8 281.316 41.8H284.113V49.8ZM282.832 45.4172V42.8938H281.316C280.238 42.8938 279.699 43.3027 279.699 44.1204C279.699 44.9849 280.223 45.4172 281.269 45.4172H282.832ZM297.785 49.8H296.629V43.4172C296.514 43.6412 296.34 43.9563 296.105 44.3625L292.41 49.8H291.082V41.8H292.254V48.1047C292.316 47.9537 292.452 47.6959 292.66 47.3313L296.457 41.8H297.785V49.8ZM307.019 49.8H305.738V46.1672H301.66V49.8H300.379V41.8H301.66V45.0813H305.738V41.8H307.019V49.8ZM314.379 49.9875V53.5657H313.223V49.9875H312.973C311.806 49.9875 310.863 49.6099 310.144 48.8547C309.426 48.0995 309.066 47.1125 309.066 45.8938C309.066 44.5969 309.428 43.5605 310.152 42.7844C310.881 42.0032 311.842 41.6125 313.035 41.6125H313.223V38.4094H314.379V41.6125H314.551C315.754 41.6125 316.717 42.0006 317.441 42.7766C318.17 43.5474 318.535 44.5865 318.535 45.8938C318.535 47.1125 318.178 48.0995 317.465 48.8547C316.751 49.6099 315.814 49.9875 314.652 49.9875H314.379ZM314.379 42.6907V48.9094H314.551C315.363 48.9094 316.012 48.636 316.496 48.0891C316.98 47.537 317.223 46.7896 317.223 45.8469C317.223 44.8573 316.983 44.0839 316.504 43.5266C316.03 42.9693 315.392 42.6907 314.59 42.6907H314.379ZM313.223 48.9094V42.6907H313.035C312.233 42.6907 311.59 42.9719 311.105 43.5344C310.621 44.0917 310.379 44.8625 310.379 45.8469C310.379 46.7792 310.621 47.524 311.105 48.0813C311.595 48.6334 312.249 48.9094 313.066 48.9094H313.223ZM323.941 49.9875C322.759 49.9875 321.814 49.6152 321.105 48.8704C320.402 48.1204 320.051 47.1282 320.051 45.8938C320.051 44.55 320.418 43.5006 321.152 42.7454C321.887 41.9902 322.879 41.6125 324.129 41.6125C325.321 41.6125 326.251 41.9797 326.918 42.7141C327.59 43.4485 327.926 44.4667 327.926 45.7688C327.926 47.0448 327.564 48.0683 326.84 48.8391C326.121 49.6047 325.155 49.9875 323.941 49.9875ZM324.035 42.6907C323.212 42.6907 322.561 42.9719 322.082 43.5344C321.603 44.0917 321.363 44.8625 321.363 45.8469C321.363 46.7948 321.605 47.5422 322.09 48.0891C322.574 48.636 323.223 48.9094 324.035 48.9094C324.863 48.9094 325.499 48.6412 325.941 48.1047C326.389 47.5683 326.613 46.8053 326.613 45.8157C326.613 44.8157 326.389 44.0448 325.941 43.5032C325.499 42.9615 324.863 42.6907 324.035 42.6907ZM331.285 48.6438H331.254V53.4797H329.973V41.8H331.254V43.2063H331.285C331.915 42.1438 332.837 41.6125 334.051 41.6125C335.082 41.6125 335.887 41.9719 336.465 42.6907C337.043 43.4042 337.332 44.3625 337.332 45.5657C337.332 46.9042 337.006 47.9771 336.355 48.7844C335.704 49.5865 334.814 49.9875 333.683 49.9875C332.647 49.9875 331.848 49.5396 331.285 48.6438ZM331.254 45.4172V46.5344C331.254 47.1959 331.467 47.7584 331.894 48.2219C332.327 48.6803 332.874 48.9094 333.535 48.9094C334.311 48.9094 334.918 48.6125 335.355 48.0188C335.798 47.425 336.019 46.5995 336.019 45.5422C336.019 44.6516 335.814 43.9537 335.402 43.4485C334.991 42.9433 334.433 42.6907 333.73 42.6907C332.986 42.6907 332.387 42.9511 331.933 43.4719C331.48 43.9875 331.254 44.636 331.254 45.4172ZM348.019 49.8H346.754V43.2063C346.639 43.5396 346.462 44.0292 346.223 44.675L344.223 49.8H343.074L341.012 44.675C340.902 44.399 340.725 43.9094 340.48 43.2063V49.8H339.379V41.8H341.012L343.121 47.0188C343.272 47.399 343.465 47.925 343.699 48.5969L344.269 47.05L346.316 41.8H348.019V49.8ZM356.34 49.8H355.058V48.55H355.027C354.47 49.5084 353.65 49.9875 352.566 49.9875C351.769 49.9875 351.144 49.7766 350.691 49.3547C350.243 48.9329 350.019 48.373 350.019 47.675C350.019 46.1803 350.9 45.3105 352.66 45.0657L355.058 44.7297C355.058 43.3704 354.509 42.6907 353.41 42.6907C352.446 42.6907 351.577 43.0188 350.801 43.675V42.3625C351.587 41.8625 352.493 41.6125 353.519 41.6125C355.4 41.6125 356.34 42.6073 356.34 44.5969V49.8ZM355.058 45.7532L353.129 46.0188C352.535 46.1021 352.087 46.2506 351.785 46.4641C351.483 46.6724 351.332 47.0448 351.332 47.5813C351.332 47.9719 351.47 48.2922 351.746 48.5422C352.027 48.787 352.4 48.9094 352.863 48.9094C353.499 48.9094 354.022 48.6881 354.433 48.2454C354.85 47.7974 355.058 47.2323 355.058 46.55V45.7532ZM366.574 52.7141H365.473V49.8H358.754V41.8H360.035V48.7141H364.113V41.8H365.394V48.7141H366.574V52.7141ZM375.066 49.8H373.91V43.4172C373.795 43.6412 373.621 43.9563 373.387 44.3625L369.691 49.8H368.363V41.8H369.535V48.1047C369.598 47.9537 369.733 47.6959 369.941 47.3313L373.738 41.8H375.066V49.8ZM383.129 49.8H381.848V46.4875H380.777C380.262 46.4875 379.793 46.9042 379.371 47.7375L378.332 49.8H376.848L378.191 47.3313C378.504 46.7584 378.881 46.3808 379.324 46.1985C378.699 46.1152 378.223 45.886 377.894 45.511C377.566 45.136 377.402 44.6672 377.402 44.1047C377.402 43.3964 377.657 42.8365 378.168 42.425C378.683 42.0084 379.405 41.8 380.332 41.8H383.129V49.8ZM381.848 45.4172V42.8938H380.332C379.254 42.8938 378.715 43.3027 378.715 44.1204C378.715 44.9849 379.238 45.4172 380.285 45.4172H381.848Z" fill="white"/>
<path opacity="0.7" d="M411.426 49.8H409.598L405.269 44.675C405.108 44.4823 405.009 44.3521 404.973 44.2844H404.941V49.8H403.629V38.5969H404.941V43.8625H404.973C405.045 43.748 405.144 43.6204 405.269 43.4797L409.457 38.5969H411.09L406.285 43.9719L411.426 49.8ZM418.465 49.8H417.183V48.55H417.152C416.595 49.5084 415.775 49.9875 414.691 49.9875C413.894 49.9875 413.269 49.7766 412.816 49.3547C412.368 48.9329 412.144 48.373 412.144 47.675C412.144 46.1803 413.025 45.3105 414.785 45.0657L417.183 44.7297C417.183 43.3704 416.634 42.6907 415.535 42.6907C414.571 42.6907 413.702 43.0188 412.926 43.675V42.3625C413.712 41.8625 414.618 41.6125 415.644 41.6125C417.525 41.6125 418.465 42.6073 418.465 44.5969V49.8ZM417.183 45.7532L415.254 46.0188C414.66 46.1021 414.212 46.2506 413.91 46.4641C413.608 46.6724 413.457 47.0448 413.457 47.5813C413.457 47.9719 413.595 48.2922 413.871 48.5422C414.152 48.787 414.525 48.9094 414.988 48.9094C415.624 48.9094 416.147 48.6881 416.558 48.2454C416.975 47.7974 417.183 47.2323 417.183 46.55V45.7532ZM426.715 49.8H425.441V42.886H423.582C423.368 45.4745 423.001 47.2922 422.48 48.3391C421.965 49.386 421.269 49.9094 420.394 49.9094C420.129 49.9094 419.9 49.873 419.707 49.8V48.6985C419.889 48.7922 420.087 48.8391 420.301 48.8391C421.446 48.8391 422.183 46.4928 422.512 41.8H426.715V49.8ZM432.66 49.9875C431.478 49.9875 430.532 49.6152 429.824 48.8704C429.121 48.1204 428.769 47.1282 428.769 45.8938C428.769 44.55 429.137 43.5006 429.871 42.7454C430.605 41.9902 431.598 41.6125 432.848 41.6125C434.04 41.6125 434.97 41.9797 435.637 42.7141C436.308 43.4485 436.644 44.4667 436.644 45.7688C436.644 47.0448 436.282 48.0683 435.558 48.8391C434.84 49.6047 433.874 49.9875 432.66 49.9875ZM432.754 42.6907C431.931 42.6907 431.28 42.9719 430.801 43.5344C430.321 44.0917 430.082 44.8625 430.082 45.8469C430.082 46.7948 430.324 47.5422 430.808 48.0891C431.293 48.636 431.941 48.9094 432.754 48.9094C433.582 48.9094 434.217 48.6412 434.66 48.1047C435.108 47.5683 435.332 46.8053 435.332 45.8157C435.332 44.8157 435.108 44.0448 434.66 43.5032C434.217 42.9615 433.582 42.6907 432.754 42.6907ZM440.004 48.6438H439.973V53.4797H438.691V41.8H439.973V43.2063H440.004C440.634 42.1438 441.556 41.6125 442.769 41.6125C443.801 41.6125 444.605 41.9719 445.183 42.6907C445.762 43.4042 446.051 44.3625 446.051 45.5657C446.051 46.9042 445.725 47.9771 445.074 48.7844C444.423 49.5865 443.532 49.9875 442.402 49.9875C441.366 49.9875 440.566 49.5396 440.004 48.6438ZM439.973 45.4172V46.5344C439.973 47.1959 440.186 47.7584 440.613 48.2219C441.045 48.6803 441.592 48.9094 442.254 48.9094C443.03 48.9094 443.637 48.6125 444.074 48.0188C444.517 47.425 444.738 46.5995 444.738 45.5422C444.738 44.6516 444.532 43.9537 444.121 43.4485C443.709 42.9433 443.152 42.6907 442.449 42.6907C441.704 42.6907 441.105 42.9511 440.652 43.4719C440.199 43.9875 439.973 44.636 439.973 45.4172ZM454.801 49.8H453.644V43.4172C453.53 43.6412 453.355 43.9563 453.121 44.3625L449.426 49.8H448.098V41.8H449.269V48.1047C449.332 47.9537 449.467 47.6959 449.676 47.3313L453.473 41.8H454.801V49.8ZM464.098 49.8H462.941V43.4172C462.827 43.6412 462.652 43.9563 462.418 44.3625L458.723 49.8H457.394V41.8H458.566V48.1047C458.629 47.9537 458.764 47.6959 458.973 47.3313L462.769 41.8H464.098V49.8ZM463.629 37.9094C463.551 38.6438 463.254 39.2245 462.738 39.6516C462.228 40.0735 461.587 40.2844 460.816 40.2844C460.025 40.2844 459.379 40.0735 458.879 39.6516C458.384 39.2245 458.113 38.6438 458.066 37.9094H459.332C459.405 38.8886 459.905 39.3782 460.832 39.3782C461.249 39.3782 461.592 39.2506 461.863 38.9954C462.134 38.7349 462.301 38.373 462.363 37.9094H463.629ZM473.332 49.8H472.051V46.1672H467.973V49.8H466.691V41.8H467.973V45.0813H472.051V41.8H473.332V49.8ZM479.269 49.9875C478.087 49.9875 477.142 49.6152 476.433 48.8704C475.73 48.1204 475.379 47.1282 475.379 45.8938C475.379 44.55 475.746 43.5006 476.48 42.7454C477.215 41.9902 478.207 41.6125 479.457 41.6125C480.65 41.6125 481.579 41.9797 482.246 42.7141C482.918 43.4485 483.254 44.4667 483.254 45.7688C483.254 47.0448 482.892 48.0683 482.168 48.8391C481.449 49.6047 480.483 49.9875 479.269 49.9875ZM479.363 42.6907C478.54 42.6907 477.889 42.9719 477.41 43.5344C476.931 44.0917 476.691 44.8625 476.691 45.8469C476.691 46.7948 476.933 47.5422 477.418 48.0891C477.902 48.636 478.551 48.9094 479.363 48.9094C480.191 48.9094 480.827 48.6412 481.269 48.1047C481.717 47.5683 481.941 46.8053 481.941 45.8157C481.941 44.8157 481.717 44.0448 481.269 43.5032C480.827 42.9615 480.191 42.6907 479.363 42.6907ZM490.754 49.4329C490.139 49.8027 489.41 49.9875 488.566 49.9875C487.426 49.9875 486.504 49.6178 485.801 48.8782C485.103 48.1334 484.754 47.1698 484.754 45.9875C484.754 44.6698 485.131 43.6125 485.887 42.8157C486.642 42.0136 487.65 41.6125 488.91 41.6125C489.613 41.6125 490.233 41.7428 490.769 42.0032V43.3157C490.176 42.899 489.54 42.6907 488.863 42.6907C488.045 42.6907 487.374 42.9849 486.848 43.5735C486.327 44.1568 486.066 44.925 486.066 45.8782C486.066 46.8157 486.311 47.5553 486.801 48.0969C487.295 48.6386 487.957 48.9094 488.785 48.9094C489.483 48.9094 490.139 48.6777 490.754 48.2141V49.4329ZM497.715 42.8938H495.316V49.8H494.035V42.8938H491.629V41.8H497.715V42.8938ZM499.254 49.8V41.8H500.535V44.8704H502.691C503.509 44.8704 504.157 45.0839 504.637 45.511C505.121 45.9381 505.363 46.5344 505.363 47.3C505.363 48.0709 505.121 48.6803 504.637 49.1282C504.152 49.5761 503.54 49.8 502.801 49.8H499.254ZM500.535 45.9719V48.7063H502.457C503.519 48.7063 504.051 48.2375 504.051 47.3C504.051 46.4146 503.514 45.9719 502.441 45.9719H500.535ZM518.41 49.8H517.254V43.4172C517.139 43.6412 516.965 43.9563 516.73 44.3625L513.035 49.8H511.707V41.8H512.879V48.1047C512.941 47.9537 513.077 47.6959 513.285 47.3313L517.082 41.8H518.41V49.8ZM530.848 49.4329C530.233 49.8027 529.504 49.9875 528.66 49.9875C527.519 49.9875 526.598 49.6178 525.894 48.8782C525.196 48.1334 524.848 47.1698 524.848 45.9875C524.848 44.6698 525.225 43.6125 525.98 42.8157C526.736 42.0136 527.743 41.6125 529.004 41.6125C529.707 41.6125 530.327 41.7428 530.863 42.0032V43.3157C530.269 42.899 529.634 42.6907 528.957 42.6907C528.139 42.6907 527.467 42.9849 526.941 43.5735C526.42 44.1568 526.16 44.925 526.16 45.8782C526.16 46.8157 526.405 47.5553 526.894 48.0969C527.389 48.6386 528.051 48.9094 528.879 48.9094C529.577 48.9094 530.233 48.6777 530.848 48.2141V49.4329ZM536.129 49.9875C534.946 49.9875 534.001 49.6152 533.293 48.8704C532.59 48.1204 532.238 47.1282 532.238 45.8938C532.238 44.55 532.605 43.5006 533.34 42.7454C534.074 41.9902 535.066 41.6125 536.316 41.6125C537.509 41.6125 538.439 41.9797 539.105 42.7141C539.777 43.4485 540.113 44.4667 540.113 45.7688C540.113 47.0448 539.751 48.0683 539.027 48.8391C538.308 49.6047 537.342 49.9875 536.129 49.9875ZM536.223 42.6907C535.4 42.6907 534.749 42.9719 534.269 43.5344C533.79 44.0917 533.551 44.8625 533.551 45.8469C533.551 46.7948 533.793 47.5422 534.277 48.0891C534.762 48.636 535.41 48.9094 536.223 48.9094C537.051 48.9094 537.686 48.6412 538.129 48.1047C538.577 47.5683 538.801 46.8053 538.801 45.8157C538.801 44.8157 538.577 44.0448 538.129 43.5032C537.686 42.9615 537.051 42.6907 536.223 42.6907ZM547.613 49.4329C546.999 49.8027 546.269 49.9875 545.426 49.9875C544.285 49.9875 543.363 49.6178 542.66 48.8782C541.962 48.1334 541.613 47.1698 541.613 45.9875C541.613 44.6698 541.991 43.6125 542.746 42.8157C543.501 42.0136 544.509 41.6125 545.769 41.6125C546.473 41.6125 547.092 41.7428 547.629 42.0032V43.3157C547.035 42.899 546.4 42.6907 545.723 42.6907C544.905 42.6907 544.233 42.9849 543.707 43.5735C543.186 44.1568 542.926 44.925 542.926 45.8782C542.926 46.8157 543.17 47.5553 543.66 48.0969C544.155 48.6386 544.816 48.9094 545.644 48.9094C546.342 48.9094 546.999 48.6777 547.613 48.2141V49.4329ZM554.574 42.8938H552.176V49.8H550.894V42.8938H548.488V41.8H554.574V42.8938ZM561.84 49.8H560.558V48.55H560.527C559.97 49.5084 559.15 49.9875 558.066 49.9875C557.269 49.9875 556.644 49.7766 556.191 49.3547C555.743 48.9329 555.519 48.373 555.519 47.675C555.519 46.1803 556.4 45.3105 558.16 45.0657L560.558 44.7297C560.558 43.3704 560.009 42.6907 558.91 42.6907C557.946 42.6907 557.077 43.0188 556.301 43.675V42.3625C557.087 41.8625 557.993 41.6125 559.019 41.6125C560.9 41.6125 561.84 42.6073 561.84 44.5969V49.8ZM560.558 45.7532L558.629 46.0188C558.035 46.1021 557.587 46.2506 557.285 46.4641C556.983 46.6724 556.832 47.0448 556.832 47.5813C556.832 47.9719 556.97 48.2922 557.246 48.5422C557.527 48.787 557.9 48.9094 558.363 48.9094C558.999 48.9094 559.522 48.6881 559.933 48.2454C560.35 47.7974 560.558 47.2323 560.558 46.55V45.7532ZM564.254 49.8V41.8H567.738C568.525 41.8 569.144 41.9745 569.598 42.3235C570.056 42.6724 570.285 43.149 570.285 43.7532C570.285 44.7896 569.775 45.4198 568.754 45.6438C569.978 45.8 570.59 46.4172 570.59 47.4954C570.59 48.1464 570.337 48.6933 569.832 49.136C569.332 49.5787 568.709 49.8 567.965 49.8H564.254ZM565.535 42.8938V45.1438H567.457C568.488 45.1438 569.004 44.7428 569.004 43.9407C569.004 43.2428 568.54 42.8938 567.613 42.8938H565.535ZM565.535 46.2375V48.7063H567.754C568.79 48.7063 569.308 48.287 569.308 47.4485C569.308 46.6412 568.728 46.2375 567.566 46.2375H565.535Z" fill="white"/>
<path opacity="0.7" d="M601.173 49.8H599.866V39.9717H594.105V49.8H592.806V38.772H601.173V49.8ZM607.156 49.9846C605.992 49.9846 605.062 49.618 604.365 48.8849C603.672 48.1466 603.326 47.1699 603.326 45.9548C603.326 44.6321 603.688 43.599 604.411 42.8556C605.134 42.1122 606.11 41.7405 607.341 41.7405C608.515 41.7405 609.43 42.1019 610.086 42.8248C610.748 43.5477 611.078 44.55 611.078 45.8318C611.078 47.0879 610.722 48.0953 610.009 48.8541C609.302 49.6078 608.351 49.9846 607.156 49.9846ZM607.248 42.8018C606.438 42.8018 605.798 43.0786 605.326 43.6323C604.854 44.1809 604.618 44.9397 604.618 45.9087C604.618 46.8418 604.857 47.5775 605.334 48.1158C605.81 48.6542 606.449 48.9233 607.248 48.9233C608.064 48.9233 608.689 48.6593 609.125 48.1312C609.566 47.6031 609.786 46.8521 609.786 45.8779C609.786 44.8936 609.566 44.1348 609.125 43.6016C608.689 43.0684 608.064 42.8018 607.248 42.8018ZM621.599 49.8H620.353V43.3093C620.24 43.6375 620.066 44.1194 619.83 44.7551L617.861 49.8H616.731L614.7 44.7551C614.593 44.4834 614.418 44.0015 614.178 43.3093V49.8H613.093V41.925H614.7L616.777 47.0623C616.926 47.4365 617.115 47.9543 617.346 48.6157L617.907 47.093L619.922 41.925H621.599V49.8ZM627.444 49.9846C626.28 49.9846 625.349 49.618 624.652 48.8849C623.96 48.1466 623.614 47.1699 623.614 45.9548C623.614 44.6321 623.975 43.599 624.698 42.8556C625.421 42.1122 626.398 41.7405 627.628 41.7405C628.802 41.7405 629.717 42.1019 630.374 42.8248C631.035 43.5477 631.366 44.55 631.366 45.8318C631.366 47.0879 631.009 48.0953 630.297 48.8541C629.589 49.6078 628.638 49.9846 627.444 49.9846ZM627.536 42.8018C626.726 42.8018 626.085 43.0786 625.613 43.6323C625.142 44.1809 624.906 44.9397 624.906 45.9087C624.906 46.8418 625.144 47.5775 625.621 48.1158C626.098 48.6542 626.736 48.9233 627.536 48.9233C628.351 48.9233 628.976 48.6593 629.412 48.1312C629.853 47.6031 630.074 46.8521 630.074 45.8779C630.074 44.8936 629.853 44.1348 629.412 43.6016C628.976 43.0684 628.351 42.8018 627.536 42.8018ZM644.609 52.6686H643.509V49.8H633.381V41.925H634.642V48.7311H637.772V41.925H639.033V48.7311H642.171V41.925H643.432V48.7311H644.609V52.6686ZM646.362 49.8V41.925H647.623V44.9474H649.746C650.551 44.9474 651.189 45.1576 651.661 45.578C652.137 45.9984 652.376 46.5854 652.376 47.3391C652.376 48.0979 652.137 48.6978 651.661 49.1387C651.184 49.5796 650.581 49.8 649.853 49.8H646.362ZM647.623 46.0317V48.7234H649.515C650.561 48.7234 651.084 48.262 651.084 47.3391C651.084 46.4675 650.556 46.0317 649.5 46.0317H647.623Z" fill="white"/>
<rect x="1193" y="27" width="32" height="32" rx="4" fill="#C4C4C4" fill-opacity="0.2"/>
<path d="M1217.23 38.5714C1217.35 38.1714 1217.23 37.8771 1216.66 37.8771H1214.77C1214.6 37.8652 1214.42 37.9108 1214.27 38.0072C1214.12 38.1035 1214.01 38.2454 1213.95 38.4114C1213.95 38.4114 1212.99 40.7514 1211.63 42.2686C1211.19 42.7086 1210.99 42.8486 1210.75 42.8486C1210.63 42.8486 1210.45 42.7057 1210.45 42.3086V38.5714C1210.45 38.0914 1210.32 37.8771 1209.92 37.8771H1206.95C1206.83 37.8705 1206.71 37.9119 1206.62 37.9922C1206.53 38.0726 1206.48 38.1853 1206.47 38.3057C1206.47 38.7614 1207.15 38.8657 1207.22 40.1457V42.93C1207.22 43.54 1207.11 43.6443 1206.87 43.6443C1206.23 43.6443 1204.68 41.2943 1203.75 38.6043C1203.57 38.0814 1203.39 37.87 1202.91 37.87H1201.02C1200.48 37.87 1200.37 38.1243 1200.37 38.4043C1200.37 38.9043 1201.01 41.3843 1203.35 44.6643C1204.91 46.9043 1207.11 48.1186 1209.11 48.1186C1210.31 48.1186 1210.46 47.8486 1210.46 47.3843V45.6971C1210.46 45.1571 1210.57 45.05 1210.95 45.05C1211.24 45.05 1211.71 45.1929 1212.83 46.27C1214.12 47.5557 1214.32 48.1271 1215.04 48.1271H1216.93C1217.47 48.1271 1217.74 47.8571 1217.58 47.3257C1217.43 46.7943 1216.8 46.0257 1215.99 45.1143C1215.55 44.5943 1214.89 44.0343 1214.69 43.7543C1214.41 43.3943 1214.49 43.2343 1214.69 42.9143C1214.69 42.91 1216.99 39.67 1217.23 38.5714Z" fill="white" fill-opacity="0.7"/>
<rect x="1233" y="27" width="32" height="32" rx="4" fill="#C4C4C4" fill-opacity="0.2"/>
<path d="M1249 35.7046C1245.18 35.7046 1241.35 35.9977 1240.51 36.5823C1238.83 37.7532 1238.83 47.2434 1240.51 48.4109C1242.19 49.5783 1255.81 49.5817 1257.48 48.4109C1259.16 47.24 1259.16 37.7497 1257.48 36.5823C1256.64 35.996 1252.82 35.7046 1249 35.7046H1249ZM1247.06 39.6594L1251.98 42.5L1247.06 45.3406V39.6594Z" fill="white" fill-opacity="0.7"/>
<path d="M25 1H1025V-1H25V1Z" fill="white" fill-opacity="0.1" mask="url(#path-1-inside-1_1_2249)"/>
<defs>
<clipPath id="clip0_1_2249">
<rect width="117" height="23" fill="white" transform="translate(18 31)"/>
</clipPath>
</defs>
</svg>
