<svg width="159" height="190" viewBox="0 0 159 190" fill="none" xmlns="http://www.w3.org/2000/svg">
<ellipse cx="80.5" cy="13" rx="13.5" ry="13" fill="#FF6900"/>
<ellipse cx="80.5" cy="44" rx="13.5" ry="13" fill="#F74806"/>
<path d="M18 188C13.1667 183.167 3.3 166.6 2.5 139C3.33333 118.167 17.7 74.6 68.5 67V101" stroke="#FF3D00" stroke-width="4"/>
<path d="M68.5 100.5C68.3333 104.167 65.9 112.2 57.5 115C54 116.5 46.6 122.5 45 134.5V172.5C44.5 178 56.5 184 59 172.5V147C58.5 142.5 68.5 136 72.5 147V172.5C72.5 176 81.5 186.5 87 172.5V147C87 142 98.5 138 101.5 147C101.5 147 101.667 164 101.5 172.5C103 178 111.5 182.5 115.5 172.5V134.5C115.5 130 112 121 104 115C100 112 90 109 91 100.5" stroke="#FF3D00" stroke-width="4"/>
<path d="M141.5 188C146.333 183.167 156.2 166.6 157 139C156.167 118.167 141.8 74.6 91 67V101" stroke="#FF3D00" stroke-width="4"/>
</svg>
